<?xml version="1.0" encoding="UTF-8" standalone="no"?><svg xmlns="http://www.w3.org/2000/svg" xmlns:xlink="http://www.w3.org/1999/xlink" contentStyleType="text/css" height="568px" preserveAspectRatio="none" style="width:1102px;height:568px;background:#FFFFFF;" version="1.1" viewBox="0 0 1102 568" width="1102px" zoomAndPan="magnify"><defs><filter height="1" id="b1ngtt6z3bcw2z0" width="1" x="0" y="0"><feFlood flood-color="#FFC0CB" result="flood"/><feComposite in="SourceGraphic" in2="flood" operator="over"/></filter></defs><g><rect fill="none" height="25.6406" id="_title" style="stroke:none;stroke-width:1.0;" width="573" x="257.5" y="5"/><text fill="#000000" font-family="sans-serif" font-size="14" font-weight="bold" lengthAdjust="spacing" textLength="563" x="262.5" y="22.6738">Calypsonet - calypsonet-terminal-calypso-sam-legacy-java-api - 1.0.+ (2022-10-24)</text><rect fill="#DDDDDD" height="58.9219" id="_legend" rx="7.5" ry="7.5" style="stroke:#000000;stroke-width:1.0;" width="294" x="397" y="44.6406"/><text fill="#000000" font-family="sans-serif" font-size="14" lengthAdjust="spacing" text-decoration="underline" textLength="88" x="403" y="63.3145">Colors legend</text><text fill="#000000" font-family="sans-serif" font-size="14" lengthAdjust="spacing" textLength="4" x="495" y="63.3145">:</text><ellipse cx="408.5" cy="74.4219" fill="#000000" rx="2.5" ry="2.5" style="stroke:#000000;stroke-width:0.0;"/><text fill="#000000" font-family="sans-serif" font-size="14" lengthAdjust="spacing" text-decoration="underline" textLength="189" x="416" y="78.9551">External public API references</text><text fill="#000000" font-family="sans-serif" font-size="14" lengthAdjust="spacing" textLength="4" x="609" y="78.9551">:</text><rect fill="#000000" height="3.5" style="stroke:#000000;stroke-width:0.0;" width="3.5" x="424" y="89.5625"/><text fill="#000000" filter="url(#b1ngtt6z3bcw2z0)" font-family="sans-serif" font-size="14" font-weight="bold" lengthAdjust="spacing" textLength="256" x="429" y="94.5957">calypsonet-terminal-calypso-java-api</text><!--MD5=[7442f3b126ee602ae02566c1a49e158a]
cluster api--><g id="cluster_api"><path d="M8.5,118.5625 L312.5,118.5625 A3.75,3.75 0 0 1 315,121.0625 L322,140.2031 L1092.5,140.2031 A2.5,2.5 0 0 1 1095,142.7031 L1095,559.0625 A2.5,2.5 0 0 1 1092.5,561.5625 L8.5,561.5625 A2.5,2.5 0 0 1 6,559.0625 L6,121.0625 A2.5,2.5 0 0 1 8.5,118.5625 " fill="#F8F9F9" style="stroke:#000000;stroke-width:1.5;"/><line style="stroke:#000000;stroke-width:1.5;" x1="6" x2="322" y1="140.2031" y2="140.2031"/><text fill="#000000" font-family="sans-serif" font-size="14" font-weight="bold" lengthAdjust="spacing" textLength="303" x="10" y="133.2363">org.calypsonet.terminal.calypso.sam.legacy</text></g><!--MD5=[120218adfd8782b0057db0a1b8294250]
class ApiProperties--><g id="elem_ApiProperties"><rect codeLine="60" fill="#FEFECE" height="63.6406" id="ApiProperties" rx="2.5" ry="2.5" style="stroke:#D4AC0D;stroke-width:2.0;" width="236" x="843" y="211.5625"/><ellipse cx="858" cy="227.5625" fill="#ADD1B2" rx="11" ry="11" style="stroke:#181818;stroke-width:1.0;"/><path d="M860.7656,223.4375 Q860.9219,223.2188 861.1094,223.1094 Q861.2969,223 861.5156,223 Q861.8906,223 862.125,223.2656 Q862.3594,223.5156 862.3594,224.125 L862.3594,225.5781 Q862.3594,226.1875 862.125,226.4531 Q861.8906,226.7188 861.5156,226.7188 Q861.1719,226.7188 860.9688,226.5156 Q860.7656,226.3281 860.6563,225.8125 Q860.6094,225.4531 860.4219,225.2656 Q860.0938,224.8906 859.4844,224.6719 Q858.875,224.4531 858.25,224.4531 Q857.4844,224.4531 856.8438,224.7813 Q856.2188,225.1094 855.7188,225.8594 Q855.2344,226.6094 855.2344,227.6406 L855.2344,228.7344 Q855.2344,229.9688 856.125,230.7969 Q857.0156,231.6094 858.6094,231.6094 Q859.5469,231.6094 860.2031,231.3594 Q860.5938,231.2031 861.0156,230.7656 Q861.2813,230.5 861.4219,230.4219 Q861.5781,230.3438 861.7813,230.3438 Q862.1094,230.3438 862.3594,230.6094 Q862.625,230.8594 862.625,231.2031 Q862.625,231.5469 862.2813,231.9531 Q861.7813,232.5313 860.9844,232.8594 Q859.9063,233.3125 858.6094,233.3125 Q857.0938,233.3125 855.8906,232.6875 Q854.9063,232.1875 854.2188,231.125 Q853.5313,230.0469 853.5313,228.7656 L853.5313,227.6094 Q853.5313,226.2813 854.1406,225.1406 Q854.7656,223.9844 855.8594,223.375 Q856.9531,222.75 858.1875,222.75 Q858.9219,222.75 859.5625,222.9219 Q860.2188,223.0781 860.7656,223.4375 Z " fill="#000000"/><ellipse cx="877" cy="227.0625" fill="#84BE84" rx="3" ry="3" style="stroke:#038048;stroke-width:1.0;"/><text fill="#000000" font-family="sans-serif" font-size="14" font-weight="bold" lengthAdjust="spacing" textLength="30" x="883" y="232.416">final</text><text fill="#000000" font-family="sans-serif" font-size="14" lengthAdjust="spacing" textLength="159" x="917" y="232.416">LegacySamApiProperties</text><line style="stroke:#D4AC0D;stroke-width:2.0;" x1="844" x2="1078" y1="243.5625" y2="243.5625"/><ellipse cx="854" cy="256.8828" fill="none" rx="3" ry="3" style="stroke:#038048;stroke-width:1.0;"/><text fill="#000000" font-family="sans-serif" font-size="14" font-weight="bold" lengthAdjust="spacing" text-decoration="underline" textLength="30" x="863" y="260.2363">final</text><text fill="#000000" font-family="sans-serif" font-size="14" lengthAdjust="spacing" text-decoration="underline" textLength="101" x="897" y="260.2363">String VERSION</text><line style="stroke:#D4AC0D;stroke-width:2.0;" x1="844" x2="1078" y1="267.2031" y2="267.2031"/></g><!--MD5=[756cbdb2eeffdcd67180b97f5e83c8e0]
class LegacySam--><g id="elem_LegacySam"><rect codeLine="63" fill="#FEFECE" height="135.4844" id="LegacySam" rx="2.5" ry="2.5" style="stroke:#D4AC0D;stroke-width:2.0;" width="349" x="240.5" y="410.5625"/><ellipse cx="349.75" cy="431.2031" fill="#B4A7E5" rx="11" ry="11" style="stroke:#181818;stroke-width:1.0;"/><path d="M350.7031,427.8438 L350.7031,434.5 L352.4219,434.5 Q353.0313,434.5 353.2969,434.7344 Q353.5625,434.9688 353.5625,435.3594 Q353.5625,435.7344 353.2969,435.9688 Q353.0313,436.2031 352.4219,436.2031 L347.2813,436.2031 Q346.6719,436.2031 346.4063,435.9688 Q346.1406,435.7344 346.1406,435.3438 Q346.1406,434.9688 346.4063,434.7344 Q346.6719,434.5 347.2813,434.5 L349,434.5 L349,427.8438 L347.2813,427.8438 Q346.6719,427.8438 346.4063,427.6094 Q346.1406,427.375 346.1406,426.9844 Q346.1406,426.6094 346.4063,426.375 Q346.6719,426.1406 347.2813,426.1406 L352.4219,426.1406 Q353.0313,426.1406 353.2969,426.375 Q353.5625,426.6094 353.5625,426.9844 Q353.5625,427.375 353.2969,427.6094 Q353.0313,427.8438 352.4219,427.8438 L350.7031,427.8438 Z " fill="#000000"/><ellipse cx="375.25" cy="430.7031" fill="#84BE84" rx="3" ry="3" style="stroke:#038048;stroke-width:1.0;"/><text fill="#000000" font-family="sans-serif" font-size="14" font-style="italic" lengthAdjust="spacing" textLength="16" x="381.25" y="428.2363">&lt;&lt;</text><text fill="#000000" filter="url(#b1ngtt6z3bcw2z0)" font-family="sans-serif" font-size="14" font-style="italic" lengthAdjust="spacing" textLength="79" x="397.25" y="428.2363">CalypsoSam</text><text fill="#000000" font-family="sans-serif" font-size="14" font-style="italic" lengthAdjust="spacing" textLength="16" x="476.25" y="428.2363">&gt;&gt;</text><text fill="#000000" font-family="sans-serif" font-size="14" font-style="italic" lengthAdjust="spacing" textLength="74" x="399.75" y="443.877">LegacySam</text><line style="stroke:#D4AC0D;stroke-width:2.0;" x1="241.5" x2="588.5" y1="451.8438" y2="451.8438"/><line style="stroke:#D4AC0D;stroke-width:2.0;" x1="241.5" x2="588.5" y1="459.8438" y2="459.8438"/><ellipse cx="251.5" cy="473.1641" fill="#84BE84" rx="3" ry="3" style="stroke:#038048;stroke-width:1.0;"/><text fill="#000000" font-family="sans-serif" font-size="14" lengthAdjust="spacing" textLength="323" x="260.5" y="476.5176">Integer getEventCounter (int eventCounterNumber)</text><ellipse cx="251.5" cy="488.8047" fill="#84BE84" rx="3" ry="3" style="stroke:#038048;stroke-width:1.0;"/><text fill="#000000" font-family="sans-serif" font-size="14" lengthAdjust="spacing" textLength="313" x="260.5" y="492.1582">SortedMap&lt;Integer, Integer&gt; getEventCounters ()</text><text fill="#000000" font-family="sans-serif" font-size="14" lengthAdjust="spacing" textLength="4" x="260.5" y="507.7988"> </text><ellipse cx="251.5" cy="520.0859" fill="#84BE84" rx="3" ry="3" style="stroke:#038048;stroke-width:1.0;"/><text fill="#000000" font-family="sans-serif" font-size="14" lengthAdjust="spacing" textLength="307" x="260.5" y="523.4395">Integer getEventCeiling (int eventCeilingNumber)</text><ellipse cx="251.5" cy="535.7266" fill="#84BE84" rx="3" ry="3" style="stroke:#038048;stroke-width:1.0;"/><text fill="#000000" font-family="sans-serif" font-size="14" lengthAdjust="spacing" textLength="305" x="260.5" y="539.0801">SortedMap&lt;Integer, Integer&gt; getEventCeilings ()</text></g><!--MD5=[0ca469eb9daf2ada2044bbaaac3ba003]
class LegacySamTransactionManager--><g id="elem_LegacySamTransactionManager"><rect codeLine="70" fill="#FEFECE" height="182.4063" id="LegacySamTransactionManager" rx="2.5" ry="2.5" style="stroke:#D4AC0D;stroke-width:2.0;" width="785" x="22.5" y="152.5625"/><ellipse cx="302.25" cy="173.2031" fill="#B4A7E5" rx="11" ry="11" style="stroke:#181818;stroke-width:1.0;"/><path d="M303.2031,169.8438 L303.2031,176.5 L304.9219,176.5 Q305.5313,176.5 305.7969,176.7344 Q306.0625,176.9688 306.0625,177.3594 Q306.0625,177.7344 305.7969,177.9688 Q305.5313,178.2031 304.9219,178.2031 L299.7813,178.2031 Q299.1719,178.2031 298.9063,177.9688 Q298.6406,177.7344 298.6406,177.3438 Q298.6406,176.9688 298.9063,176.7344 Q299.1719,176.5 299.7813,176.5 L301.5,176.5 L301.5,169.8438 L299.7813,169.8438 Q299.1719,169.8438 298.9063,169.6094 Q298.6406,169.375 298.6406,168.9844 Q298.6406,168.6094 298.9063,168.375 Q299.1719,168.1406 299.7813,168.1406 L304.9219,168.1406 Q305.5313,168.1406 305.7969,168.375 Q306.0625,168.6094 306.0625,168.9844 Q306.0625,169.375 305.7969,169.6094 Q305.5313,169.8438 304.9219,169.8438 L303.2031,169.8438 Z " fill="#000000"/><ellipse cx="327.75" cy="172.7031" fill="#84BE84" rx="3" ry="3" style="stroke:#038048;stroke-width:1.0;"/><text fill="#000000" font-family="sans-serif" font-size="14" font-style="italic" lengthAdjust="spacing" textLength="16" x="340.75" y="170.2363">&lt;&lt;</text><text fill="#000000" filter="url(#b1ngtt6z3bcw2z0)" font-family="sans-serif" font-size="14" font-style="italic" lengthAdjust="spacing" textLength="160" x="356.75" y="170.2363">SamTransactionManager</text><text fill="#000000" font-family="sans-serif" font-size="14" font-style="italic" lengthAdjust="spacing" textLength="16" x="516.75" y="170.2363">&gt;&gt;</text><text fill="#000000" font-family="sans-serif" font-size="14" font-style="italic" lengthAdjust="spacing" textLength="206" x="333.75" y="185.877">LegacySamTransactionManager</text><line style="stroke:#D4AC0D;stroke-width:2.0;" x1="23.5" x2="806.5" y1="193.8438" y2="193.8438"/><line style="stroke:#D4AC0D;stroke-width:2.0;" x1="23.5" x2="806.5" y1="201.8438" y2="201.8438"/><ellipse cx="33.5" cy="215.1641" fill="#84BE84" rx="3" ry="3" style="stroke:#038048;stroke-width:1.0;"/><text fill="#000000" font-family="sans-serif" font-size="14" lengthAdjust="spacing" textLength="548" x="42.5" y="218.5176">LegacySamTransactionManager prepareReadEventCounter (int eventCounterNumber)</text><ellipse cx="33.5" cy="230.8047" fill="#84BE84" rx="3" ry="3" style="stroke:#038048;stroke-width:1.0;"/><text fill="#000000" font-family="sans-serif" font-size="14" lengthAdjust="spacing" textLength="759" x="42.5" y="234.1582">LegacySamTransactionManager prepareReadEventCounters (int fromEventCounterNumber, int toEventCounterNumber)</text><text fill="#000000" font-family="sans-serif" font-size="14" lengthAdjust="spacing" textLength="4" x="42.5" y="249.7988"> </text><ellipse cx="33.5" cy="262.0859" fill="#84BE84" rx="3" ry="3" style="stroke:#038048;stroke-width:1.0;"/><text fill="#000000" font-family="sans-serif" font-size="14" lengthAdjust="spacing" textLength="532" x="42.5" y="265.4395">LegacySamTransactionManager prepareReadEventCeiling (int eventCeilingNumber)</text><ellipse cx="33.5" cy="277.7266" fill="#84BE84" rx="3" ry="3" style="stroke:#038048;stroke-width:1.0;"/><text fill="#000000" font-family="sans-serif" font-size="14" lengthAdjust="spacing" textLength="735" x="42.5" y="281.0801">LegacySamTransactionManager prepareReadEventCeilings (int fromEventCeilingNumber, int toEventCeilingNumber)</text><text fill="#000000" font-family="sans-serif" font-size="14" lengthAdjust="spacing" textLength="4" x="42.5" y="296.7207"> </text><ellipse cx="33.5" cy="309.0078" fill="#84BE84" rx="3" ry="3" style="stroke:#038048;stroke-width:1.0;"/><text fill="#000000" font-family="sans-serif" font-size="14" lengthAdjust="spacing" textLength="619" x="42.5" y="312.3613">LegacySamTransactionManager prepareWriteEventCeiling (int eventCeilingNumber, int newValue)</text><ellipse cx="33.5" cy="324.6484" fill="#84BE84" rx="3" ry="3" style="stroke:#038048;stroke-width:1.0;"/><text fill="#000000" font-family="sans-serif" font-size="14" lengthAdjust="spacing" textLength="729" x="42.5" y="328.002">LegacySamTransactionManager prepareWriteEventCeilings (int fromEventCeilingNumber, List&lt;Integer&gt; newValues)</text></g><!--MD5=[16b2228734b2f36271a826798f53931c]
link LegacySamTransactionManager to LegacySam--><g id="link_LegacySamTransactionManager_LegacySam"><path codeLine="84" d="M415,334.7855 C415,358.1635 415,383.0215 415,405.3105 " fill="none" id="LegacySamTransactionManager-to-LegacySam" style="stroke:#3498DB;stroke-width:2.0;stroke-dasharray:7.0,7.0;"/><polygon fill="#3498DB" points="415,410.3215,419,401.3215,415,405.3215,411,401.3215,415,410.3215" style="stroke:#3498DB;stroke-width:2.0;"/><polygon fill="#000000" points="420,377.8242,422.9389,368.7791,417.0611,368.7791,420,377.8242" style="stroke:#000000;stroke-width:1.0;"/><text fill="#000000" font-family="sans-serif" font-size="13" lengthAdjust="spacing" textLength="40" x="429" y="377.3311">provide</text></g><!--MD5=[50f41d2f85ae4c2fea697defef442f85]
@startuml
title
    Calypsonet - calypsonet-terminal-calypso-sam-legacy-java-api - 1.0.+ (2022-10-24)
end title

' == THEME ==

'Couleurs issues de : https://htmlcolorcodes.com/fr/tableau-de-couleur/tableau-de-couleur-design-plat/
!define C_GREY1 F8F9F9
!define C_GREY2 F2F3F4
!define C_GREY3 E5E7E9
!define C_GREY4 D7DBDD
!define C_GREY5 CACFD2
!define C_GREY6 BDC3C7
!define C_LINK 3498DB
!define C_USE 27AE60

' - - Styles that don't work with new version of plantuml - -
skinparam stereotypeABorderColor #A9DCDF
skinparam stereotypeIBorderColor #B4A7E5
skinparam stereotypeCBorderColor #ADD1B2
skinparam stereotypeEBorderColor #EB93DF
' - - END - -

skinparam ClassBorderThickness 2
skinparam ArrowThickness 2

' Yellow
skinparam ClassBackgroundColor #FEFECE
skinparam ClassBorderColor #D4AC0D
' Red
skinparam ClassBackgroundColor<<red>> #FDEDEC
skinparam ClassBorderColor<<red>> #E74C3C
hide <<red>> stereotype
' Purple
skinparam ClassBackgroundColor<<purple>> #F4ECF7
skinparam ClassBorderColor<<purple>> #8E44AD
hide <<purple>> stereotype
' blue
skinparam ClassBackgroundColor<<blue>> #EBF5FB
skinparam ClassBorderColor<<blue>> #3498DB
hide <<blue>> stereotype
' Green
skinparam ClassBackgroundColor<<green>> #E9F7EF
skinparam ClassBorderColor<<green>> #27AE60
hide <<green>> stereotype
' Grey
skinparam ClassBackgroundColor<<grey>> #EAECEE
skinparam ClassBorderColor<<grey>> #2C3E50
hide <<grey>> stereotype

' == CONTENT ==

legend top
    __Colors legend__ :
    * __External public API references__ :
    ** <back:pink>**calypsonet-terminal-calypso-java-api**</back>
end legend

package "org.calypsonet.terminal.calypso.sam.legacy" as api {
    +class "**final** LegacySamApiProperties" as ApiProperties {
        +{static} **final** String VERSION
    }
    +interface "<<<back:pink>CalypsoSam</back>>>\nLegacySam" as LegacySam {
        +Integer getEventCounter (int eventCounterNumber)
        +SortedMap<Integer, Integer> getEventCounters ()

        +Integer getEventCeiling (int eventCeilingNumber)
        +SortedMap<Integer, Integer> getEventCeilings ()
    }
    +interface "<<<back:pink>SamTransactionManager</back>>>\nLegacySamTransactionManager" as LegacySamTransactionManager {
        +LegacySamTransactionManager prepareReadEventCounter (int eventCounterNumber)
        +LegacySamTransactionManager prepareReadEventCounters (int fromEventCounterNumber, int toEventCounterNumber)

        +LegacySamTransactionManager prepareReadEventCeiling (int eventCeilingNumber)
        +LegacySamTransactionManager prepareReadEventCeilings (int fromEventCeilingNumber, int toEventCeilingNumber)

        +LegacySamTransactionManager prepareWriteEventCeiling (int eventCeilingNumber, int newValue)
        +LegacySamTransactionManager prepareWriteEventCeilings (int fromEventCeilingNumber, List<Integer> newValues)
    }
}

' Associations

LegacySamTransactionManager ..> LegacySam #C_LINK : provide >

' == LAYOUT ==

'CommonSignatureComputationData -[hidden]- CommonSignatureVerificationData

' == STYLE ==

package api #C_GREY1 {}


@enduml

@startuml
title
    Calypsonet - calypsonet-terminal-calypso-sam-legacy-java-api - 1.0.+ (2022-10-24)
end title



skinparam stereotypeABorderColor #A9DCDF
skinparam stereotypeIBorderColor #B4A7E5
skinparam stereotypeCBorderColor #ADD1B2
skinparam stereotypeEBorderColor #EB93DF

skinparam ClassBorderThickness 2
skinparam ArrowThickness 2

skinparam ClassBackgroundColor #FEFECE
skinparam ClassBorderColor #D4AC0D
skinparam ClassBackgroundColor<<red>> #FDEDEC
skinparam ClassBorderColor<<red>> #E74C3C
hide <<red>> stereotype
skinparam ClassBackgroundColor<<purple>> #F4ECF7
skinparam ClassBorderColor<<purple>> #8E44AD
hide <<purple>> stereotype
skinparam ClassBackgroundColor<<blue>> #EBF5FB
skinparam ClassBorderColor<<blue>> #3498DB
hide <<blue>> stereotype
skinparam ClassBackgroundColor<<green>> #E9F7EF
skinparam ClassBorderColor<<green>> #27AE60
hide <<green>> stereotype
skinparam ClassBackgroundColor<<grey>> #EAECEE
skinparam ClassBorderColor<<grey>> #2C3E50
hide <<grey>> stereotype


legend top
    __Colors legend__ :
    * __External public API references__ :
    ** <back:pink>**calypsonet-terminal-calypso-java-api**</back>
end legend

package "org.calypsonet.terminal.calypso.sam.legacy" as api {
    +class "**final** LegacySamApiProperties" as ApiProperties {
        +{static} **final** String VERSION
    }
    +interface "<<<back:pink>CalypsoSam</back>>>\nLegacySam" as LegacySam {
        +Integer getEventCounter (int eventCounterNumber)
        +SortedMap<Integer, Integer> getEventCounters ()

        +Integer getEventCeiling (int eventCeilingNumber)
        +SortedMap<Integer, Integer> getEventCeilings ()
    }
    +interface "<<<back:pink>SamTransactionManager</back>>>\nLegacySamTransactionManager" as LegacySamTransactionManager {
        +LegacySamTransactionManager prepareReadEventCounter (int eventCounterNumber)
        +LegacySamTransactionManager prepareReadEventCounters (int fromEventCounterNumber, int toEventCounterNumber)

        +LegacySamTransactionManager prepareReadEventCeiling (int eventCeilingNumber)
        +LegacySamTransactionManager prepareReadEventCeilings (int fromEventCeilingNumber, int toEventCeilingNumber)

        +LegacySamTransactionManager prepareWriteEventCeiling (int eventCeilingNumber, int newValue)
        +LegacySamTransactionManager prepareWriteEventCeilings (int fromEventCeilingNumber, List<Integer> newValues)
    }
}


LegacySamTransactionManager ..> LegacySam #3498DB : provide >




package api #F8F9F9 {}


@enduml

PlantUML version 1.2022.7(Mon Aug 22 19:01:30 CEST 2022)
(GPL source distribution)
Java Runtime: OpenJDK Runtime Environment
JVM: OpenJDK 64-Bit Server VM
Default Encoding: Cp1252
Language: fr
Country: FR
--></g></svg>